<?xml version="1.0" encoding="UTF-8"?>
<svg id="Filled" xmlns="http://www.w3.org/2000/svg" viewBox="0 0 512 512">
  <defs>
    <style>
      .cls-1 {
        fill: #fff;
        stroke-width: 0px;
      }
    </style>
  </defs>
  <path class="cls-1" d="M0,405.33c.07,58.88,47.79,106.6,106.67,106.67h298.67c58.88-.07,106.6-47.79,106.67-106.67v-192H0v192ZM362.67,309.33c17.67,0,32,14.33,32,32s-14.33,32-32,32-32-14.33-32-32,14.33-32,32-32ZM256,309.33c17.67,0,32,14.33,32,32s-14.33,32-32,32-32-14.33-32-32,14.33-32,32-32ZM149.33,309.33c17.67,0,32,14.33,32,32s-14.33,32-32,32-32-14.33-32-32,14.33-32,32-32Z"/>
  <path class="cls-1" d="M405.33,42.67h-21.33v-21.33c0-11.78-9.55-21.33-21.33-21.33s-21.33,9.55-21.33,21.33v21.33h-170.67v-21.33c0-11.78-9.55-21.33-21.33-21.33s-21.33,9.55-21.33,21.33v21.33h-21.33C47.79,42.74.07,90.45,0,149.33v21.33h512v-21.33c-.07-58.88-47.79-106.6-106.67-106.67Z"/>
</svg>