<?xml version="1.0" encoding="utf-8"?>
<!-- Generator: Adobe Illustrator 28.2.0, SVG Export Plug-In . SVG Version: 6.00 Build 0)  -->
<svg version="1.1" id="Layer_1" xmlns="http://www.w3.org/2000/svg" xmlns:xlink="http://www.w3.org/1999/xlink" x="0px" y="0px"
	 viewBox="0 0 512 512" style="enable-background:new 0 0 512 512;" xml:space="preserve">
<style type="text/css">
	.st0{fill:#FFFFFF;}
</style>
<path class="st0" d="M92.7,234.7H0C0.1,175.8,47.8,128.1,106.7,128h128V34.9c0-19.3,15.7-34.9,34.9-34.9c5.1,0,10.1,1.1,14.8,3.3
	l68.3,32c10,6.2,13.1,19.4,6.9,29.4c-1.7,2.8-4.1,5.2-6.9,6.9l-75.3,35.1V128h128c58.9,0.1,106.6,47.8,106.7,106.7h-92.7
	c-16.7,0-32.7-6.5-44.6-18.1L316.4,153c-33.9-32.7-87.7-32.4-121.3,0.6l-57.1,62.3C125.9,227.9,109.6,234.6,92.7,234.7L92.7,234.7z
	 M256,405.3c-11.8,0-21.3,9.6-21.3,21.3V512h42.7v-85.3C277.3,414.9,267.8,405.3,256,405.3z M419.3,277.3H512V448
	c0,35.3-28.7,64-64,64H320v-85.3c0-35.3-28.7-64-64-64s-64,28.7-64,64V512H64c-35.3,0-64-28.7-64-64V277.3h92.7
	c28.6,0,56-11.5,76.1-31.9l57.1-62.3c16.7-15.7,42.7-16,59.7-0.6l58.4,63.6C363.9,266.1,391.1,277.4,419.3,277.3L419.3,277.3z
	 M128,448c0-11.8-9.6-21.3-21.3-21.3H85.3c-11.8,0-21.3,9.6-21.3,21.3c0,11.8,9.6,21.3,21.3,21.3h21.3
	C118.4,469.3,128,459.8,128,448z M128,362.7c0-11.8-9.6-21.3-21.3-21.3H85.3c-11.8,0-21.3,9.6-21.3,21.3c0,11.8,9.6,21.3,21.3,21.3
	h21.3C118.4,384,128,374.4,128,362.7z M298.7,277.3c0-23.6-19.1-42.7-42.7-42.7s-42.7,19.1-42.7,42.7S232.4,320,256,320
	S298.7,300.9,298.7,277.3z M448,448c0-11.8-9.6-21.3-21.3-21.3h-21.3c-11.8,0-21.3,9.6-21.3,21.3c0,11.8,9.6,21.3,21.3,21.3h21.3
	C438.4,469.3,448,459.8,448,448z M426.7,341.3h-21.3c-11.8,0-21.3,9.6-21.3,21.3c0,11.8,9.6,21.3,21.3,21.3h21.3
	c11.8,0,21.3-9.6,21.3-21.3C448,350.9,438.4,341.3,426.7,341.3z"/>
</svg>
