<?xml version="1.0" encoding="utf-8"?>
<!-- Generator: Adobe Illustrator 28.2.0, SVG Export Plug-In . SVG Version: 6.00 Build 0)  -->
<svg version="1.1" id="Filled" xmlns="http://www.w3.org/2000/svg" xmlns:xlink="http://www.w3.org/1999/xlink" x="0px" y="0px"
	 viewBox="0 0 512 512" style="enable-background:new 0 0 512 512;" xml:space="preserve">
<style type="text/css">
	.st0{fill:#FFFFFF;}
</style>
<path class="st0" d="M256,0C114.6,0,0,114.6,0,256s114.6,256,256,256s256-114.6,256-256C511.8,114.7,397.3,0.2,256,0z M277.3,253.4
	c0,7.4-3.8,14.2-10,18.1l-81.9,51.2c-10,6.3-23.2,3.2-29.5-6.8s-3.2-23.2,6.8-29.5l71.9-44.8v-92.3c0-11.8,9.6-21.3,21.3-21.3
	c11.8,0,21.3,9.6,21.3,21.3V253.4z"/>
</svg>
